<?xml version="1.0" encoding="UTF-8" standalone="no"?>
<!-- Created with Inkscape (http://www.inkscape.org/) -->

<svg
   width="264.58334mm"
   height="94.120537mm"
   viewBox="0 0 264.58334 94.120537"
   version="1.1"
   id="svg1"
   inkscape:version="1.3.2 (091e20e, 2023-11-25, custom)"
   sodipodi:docname="Astra Infra.svg"
   xmlns:inkscape="http://www.inkscape.org/namespaces/inkscape"
   xmlns:sodipodi="http://sodipodi.sourceforge.net/DTD/sodipodi-0.dtd"
   xmlns="http://www.w3.org/2000/svg"
   xmlns:svg="http://www.w3.org/2000/svg">
  <sodipodi:namedview
     id="namedview1"
     pagecolor="#ffffff"
     bordercolor="#000000"
     borderopacity="0.25"
     inkscape:showpageshadow="2"
     inkscape:pageopacity="0.0"
     inkscape:pagecheckerboard="0"
     inkscape:deskcolor="#d1d1d1"
     inkscape:document-units="mm"
     inkscape:zoom="0.72782688"
     inkscape:cx="421.8036"
     inkscape:cy="107.85532"
     inkscape:window-width="1920"
     inkscape:window-height="1094"
     inkscape:window-x="-11"
     inkscape:window-y="-11"
     inkscape:window-maximized="1"
     inkscape:current-layer="layer1" />
  <defs
     id="defs1">
    <linearGradient
       id="linearGradient3112"
       spreadMethod="pad"
       gradientTransform="matrix(0.0023085,0,0,-0.0023085,270.4552,639.37988)"
       gradientUnits="userSpaceOnUse"
       y2="0"
       x2="1"
       y1="0"
       x1="0">
      <stop
         id="stop3108"
         offset="0"
         style="stop-opacity:1;stop-color:#660f0e" />
      <stop
         id="stop3110"
         offset="1"
         style="stop-opacity:1;stop-color:#ed2127" />
    </linearGradient>
    <linearGradient
       id="linearGradient3092"
       spreadMethod="pad"
       gradientTransform="matrix(0.2684667,0,0,-0.2684667,269.16302,638.77808)"
       gradientUnits="userSpaceOnUse"
       y2="0"
       x2="1"
       y1="0"
       x1="0">
      <stop
         id="stop3088"
         offset="0"
         style="stop-opacity:1;stop-color:#660f0e" />
      <stop
         id="stop3090"
         offset="1"
         style="stop-opacity:1;stop-color:#ed2127" />
    </linearGradient>
    <linearGradient
       id="linearGradient3072"
       spreadMethod="pad"
       gradientTransform="matrix(13.193994,0,0,-13.193994,270.4574,546.09106)"
       gradientUnits="userSpaceOnUse"
       y2="0"
       x2="1"
       y1="0"
       x1="0">
      <stop
         id="stop3068"
         offset="0"
         style="stop-opacity:1;stop-color:#660f0e" />
      <stop
         id="stop3070"
         offset="1"
         style="stop-opacity:1;stop-color:#ed2127" />
    </linearGradient>
    <linearGradient
       id="linearGradient3052"
       spreadMethod="pad"
       gradientTransform="matrix(19.972689,0,0,-19.972689,268.55945,516.55225)"
       gradientUnits="userSpaceOnUse"
       y2="0"
       x2="1"
       y1="0"
       x1="0">
      <stop
         id="stop3048"
         offset="0"
         style="stop-opacity:1;stop-color:#6d6d6f" />
      <stop
         id="stop3050"
         offset="1"
         style="stop-opacity:1;stop-color:#ffffff" />
    </linearGradient>
    <linearGradient
       id="linearGradient3032"
       spreadMethod="pad"
       gradientTransform="matrix(19.964922,0,0,-19.964922,268.56885,513.21313)"
       gradientUnits="userSpaceOnUse"
       y2="0"
       x2="1"
       y1="0"
       x1="0">
      <stop
         id="stop3028"
         offset="0"
         style="stop-opacity:1;stop-color:#6d6d6f" />
      <stop
         id="stop3030"
         offset="1"
         style="stop-opacity:1;stop-color:#ffffff" />
    </linearGradient>
    <linearGradient
       id="linearGradient3012"
       spreadMethod="pad"
       gradientTransform="matrix(1.871644,0,0,-1.871644,270.90411,622.73926)"
       gradientUnits="userSpaceOnUse"
       y2="0"
       x2="1"
       y1="0"
       x1="0">
      <stop
         id="stop3008"
         offset="0"
         style="stop-opacity:1;stop-color:#6d6d6f" />
      <stop
         id="stop3010"
         offset="1"
         style="stop-opacity:1;stop-color:#ffffff" />
    </linearGradient>
    <linearGradient
       id="linearGradient2992"
       spreadMethod="pad"
       gradientTransform="matrix(30.952858,0,0,-30.952858,267.32336,429.34326)"
       gradientUnits="userSpaceOnUse"
       y2="0"
       x2="1"
       y1="0"
       x1="0">
      <stop
         id="stop2988"
         offset="0"
         style="stop-opacity:1;stop-color:#b12024" />
      <stop
         id="stop2990"
         offset="1"
         style="stop-opacity:1;stop-color:#ed2127" />
    </linearGradient>
    <linearGradient
       id="linearGradient2972"
       spreadMethod="pad"
       gradientTransform="matrix(1.2042313,0,0,-1.2042313,270.45361,629.85034)"
       gradientUnits="userSpaceOnUse"
       y2="0"
       x2="1"
       y1="0"
       x1="0">
      <stop
         id="stop2968"
         offset="0"
         style="stop-opacity:1;stop-color:#b12024" />
      <stop
         id="stop2970"
         offset="1"
         style="stop-opacity:1;stop-color:#ed2127" />
    </linearGradient>
    <linearGradient
       id="linearGradient2952"
       spreadMethod="pad"
       gradientTransform="matrix(24.313826,0,0,-24.313826,269.34528,470.28516)"
       gradientUnits="userSpaceOnUse"
       y2="0"
       x2="1"
       y1="0"
       x1="0">
      <stop
         id="stop2948"
         offset="0"
         style="stop-opacity:1;stop-color:#949598" />
      <stop
         id="stop2950"
         offset="1"
         style="stop-opacity:1;stop-color:#d2d3d3" />
    </linearGradient>
    <clipPath
       id="clipPath2930"
       clipPathUnits="userSpaceOnUse">
      <path
         inkscape:connector-curvature="0"
         id="path2928"
         d="M 0,0 H 595.276 V 841.89 H 0 Z" />
    </clipPath>
    <linearGradient
       id="linearGradient2920"
       spreadMethod="pad"
       gradientTransform="matrix(19.962404,0,0,-19.962404,268.56952,498.84229)"
       gradientUnits="userSpaceOnUse"
       y2="0"
       x2="1"
       y1="0"
       x1="0">
      <stop
         id="stop2916"
         offset="0"
         style="stop-opacity:1;stop-color:#6d6d6f" />
      <stop
         id="stop2918"
         offset="1"
         style="stop-opacity:1;stop-color:#ffffff" />
    </linearGradient>
    <clipPath
       id="clipPath2850"
       clipPathUnits="userSpaceOnUse">
      <path
         inkscape:connector-curvature="0"
         id="path2848"
         d="M 0,0 H 595.276 V 841.89 H 0 Z" />
    </clipPath>
    <clipPath
       id="clipPath2836"
       clipPathUnits="userSpaceOnUse">
      <path
         inkscape:connector-curvature="0"
         id="path2834"
         d="M 0,0 H 595.276 V 841.89 H 0 Z" />
    </clipPath>
    <clipPath
       id="clipPath2812"
       clipPathUnits="userSpaceOnUse">
      <path
         inkscape:connector-curvature="0"
         id="path2810"
         d="M 0,0 H 595.276 V 841.89 H 0 Z" />
    </clipPath>
    <clipPath
       id="clipPath2790"
       clipPathUnits="userSpaceOnUse">
      <path
         inkscape:connector-curvature="0"
         id="path2788"
         d="M 0,0 H 595.276 V 841.89 H 0 Z" />
    </clipPath>
    <clipPath
       id="clipPath2762"
       clipPathUnits="userSpaceOnUse">
      <path
         inkscape:connector-curvature="0"
         id="path2760"
         d="M 0,0 H 595.276 V 841.89 H 0 Z" />
    </clipPath>
    <clipPath
       id="clipPath2736"
       clipPathUnits="userSpaceOnUse">
      <path
         inkscape:connector-curvature="0"
         id="path2734"
         d="M 0,0 H 595.276 V 841.89 H 0 Z" />
    </clipPath>
    <clipPath
       id="clipPath2720"
       clipPathUnits="userSpaceOnUse">
      <path
         inkscape:connector-curvature="0"
         id="path2718"
         d="M 0,0 H 595.276 V 841.89 H 0 Z" />
    </clipPath>
    <clipPath
       id="clipPath2692"
       clipPathUnits="userSpaceOnUse">
      <path
         inkscape:connector-curvature="0"
         id="path2690"
         d="M 0,0 H 595.276 V 841.89 H 0 Z" />
    </clipPath>
    <clipPath
       id="clipPath2674"
       clipPathUnits="userSpaceOnUse">
      <path
         inkscape:connector-curvature="0"
         id="path2672"
         d="M 0,0 H 595.276 V 841.89 H 0 Z" />
    </clipPath>
    <clipPath
       id="clipPath2658"
       clipPathUnits="userSpaceOnUse">
      <path
         inkscape:connector-curvature="0"
         id="path2656"
         d="M 0,0 H 595.276 V 841.89 H 0 Z" />
    </clipPath>
  </defs>
  <g
     inkscape:label="Layer 1"
     inkscape:groupmode="layer"
     id="layer1"
     transform="translate(-106.62709,-119.85618)">
    <path
       inkscape:connector-curvature="0"
       id="path2650"
       style="fill:#000101;fill-opacity:1;fill-rule:nonzero;stroke:none;stroke-width:2.85838"
       d="m 184.74692,188.57235 h -3.8102 l 3.8102,-10.70462 3.8102,10.70462 z m 2.99558,-15.85263 h -2.99558 -2.77551 l -10.09005,25.84269 h 5.35949 l 2.26383,-5.97689 h 5.24224 5.25375 l 2.15802,5.97689 h 5.77108 z" />
    <g
       clip-path="url(#clipPath2658)"
       id="g2654"
       transform="matrix(2.8583827,0,0,-2.8583827,-650.00968,2017.6728)">
      <g
         transform="translate(299.9639,642.9316)"
         id="g2660">
        <path
           inkscape:connector-curvature="0"
           id="path2662"
           style="fill:#000101;fill-opacity:1;fill-rule:nonzero;stroke:none"
           d="m 0,0 c 0,0.973 0.828,1.261 1.44,1.261 0.648,0 1.258,-0.143 1.837,-0.396 L 3.459,2.34 C 2.772,2.556 2.053,2.666 1.295,2.666 c -1.584,0 -3.166,-0.72 -3.166,-2.736 0,-2.991 3.959,-2.309 3.959,-4 0,-0.829 -0.937,-1.189 -1.621,-1.189 -0.683,0 -1.404,0.217 -2.016,0.577 L -1.73,-6.338 c 0.9,-0.216 1.332,-0.326 2.306,-0.326 1.835,0 3.383,0.758 3.383,2.739 C 3.959,-0.9 0,-1.585 0,0" />
      </g>
    </g>
    <path
       inkscape:connector-curvature="0"
       id="path2666"
       style="fill:#000101;fill-opacity:1;fill-rule:nonzero;stroke:none;stroke-width:2.85838"
       d="m 222.94179,176.84155 h 7.41752 v 21.72086 h 5.14509 v -21.72086 h 7.41176 v -4.12183 h -19.97437 z" />
    <g
       clip-path="url(#clipPath2674)"
       id="g2670"
       transform="matrix(2.8583827,0,0,-2.8583827,-650.00968,2017.6728)">
      <g
         transform="translate(317.2522,641.6345)"
         id="g2676">
        <path
           inkscape:connector-curvature="0"
           id="path2678"
           style="fill:#000101;fill-opacity:1;fill-rule:nonzero;stroke:none"
           d="m 0,0 c -0.217,-0.036 -0.468,-0.036 -0.686,-0.036 h -0.575 v 2.413 h 0.575 c 0.218,0 0.469,0 0.686,-0.035 C 0.647,2.271 1.259,2.018 1.259,1.227 1.259,0.361 0.647,0.073 0,0 m 1.655,-5.222 h 2.017 l -1.441,3.53 c -0.178,0.396 -0.467,0.9 -0.972,0.937 V -0.72 C 2.412,-0.576 3.13,0.289 3.13,1.37 3.13,3.422 1.582,3.748 0,3.819 h -1.118 -1.947 v -9.041 h 1.804 v 3.746 h 0.575 c 0.289,0 0.504,-0.036 0.686,-0.108 0.25,-0.143 0.394,-0.397 0.576,-0.829 z" />
      </g>
    </g>
    <path
       inkscape:connector-curvature="0"
       id="path2682"
       style="fill:#000101;fill-opacity:1;fill-rule:nonzero;stroke:none;stroke-width:2.85838"
       d="m 283.47721,188.57235 h -3.8102 l 3.8102,-10.70462 3.80736,10.70462 z m 0,-15.85263 h -2.7841 l -10.08721,25.84269 h 5.35664 l 2.26384,-5.97689 h 5.25083 5.24799 l 2.16094,5.97689 h 5.76825 l -10.19587,-25.84269 z" />
    <path
       inkscape:connector-curvature="0"
       id="path2684"
       style="fill:#000101;fill-opacity:1;fill-rule:nonzero;stroke:none;stroke-width:2.85838"
       d="m 309.9181,198.56379 h 2.47248 v -25.91983 h -2.47248 z" />
    <g
       clip-path="url(#clipPath2692)"
       id="g2688"
       transform="matrix(2.8583827,0,0,-2.8583827,-650.00968,2017.6728)">
      <g
         transform="translate(343.4836,636.4121)"
         id="g2694">
        <path
           inkscape:connector-curvature="0"
           id="path2696"
           style="fill:#000101;fill-opacity:1;fill-rule:nonzero;stroke:none"
           d="M 0,0 V 4.24 C 0,4.983 -0.164,5.588 -0.492,6.054 -0.833,6.532 -1.402,6.776 -2.189,6.785 -2.513,6.785 -2.794,6.746 -3.031,6.67 -3.263,6.59 -3.461,6.481 -3.619,6.34 -3.771,6.214 -3.896,6.072 -3.995,5.915 -4.097,5.76 -4.184,5.602 -4.257,5.446 H -4.279 V 6.625 H -5.05 C -5.015,6.096 -5,5.578 -5,5.072 V 0 h 0.786 v 3.666 c 0,0.297 0.033,0.588 0.1,0.876 0.06,0.276 0.164,0.531 0.311,0.769 0.289,0.499 0.786,0.758 1.491,0.776 0.544,-0.009 0.941,-0.191 1.187,-0.546 0.227,-0.375 0.339,-0.876 0.339,-1.507 V 0 Z" />
      </g>
      <g
         transform="translate(346.5161,636.4121)"
         id="g2698">
        <path
           inkscape:connector-curvature="0"
           id="path2700"
           style="fill:#000101;fill-opacity:1;fill-rule:nonzero;stroke:none"
           d="M 0,0 V 5.928 H 1.448 V 6.625 H 0 v 0.578 c 0,0.215 0.006,0.439 0.014,0.673 0,0.224 0.024,0.436 0.075,0.634 0.047,0.2 0.144,0.369 0.288,0.509 0.136,0.122 0.335,0.182 0.599,0.182 0.24,0 0.448,-0.047 0.627,-0.144 L 1.65,9.773 C 1.577,9.823 1.469,9.861 1.326,9.888 1.185,9.896 1.045,9.899 0.908,9.899 0.507,9.899 0.196,9.823 -0.029,9.672 -0.268,9.515 -0.439,9.3 -0.545,9.031 -0.657,8.771 -0.718,8.478 -0.736,8.15 -0.769,7.81 -0.785,7.463 -0.785,7.108 V 6.625 H -2.079 V 5.928 h 1.294 V 0 Z" />
      </g>
      <g
         transform="translate(349.7852,636.4121)"
         id="g2702">
        <path
           inkscape:connector-curvature="0"
           id="path2704"
           style="fill:#000101;fill-opacity:1;fill-rule:nonzero;stroke:none"
           d="m 0,0 v 3.279 c 0,0.305 0.029,0.618 0.088,0.939 0.048,0.302 0.131,0.583 0.251,0.846 0.129,0.267 0.291,0.479 0.49,0.635 0.202,0.148 0.458,0.226 0.77,0.236 0.209,0 0.404,-0.026 0.58,-0.077 V 6.709 C 2.018,6.75 1.834,6.776 1.624,6.785 1.223,6.776 0.886,6.632 0.616,6.352 0.343,6.078 0.128,5.746 -0.024,5.356 H -0.048 V 6.625 H -0.833 C -0.802,6.253 -0.786,5.761 -0.786,5.148 V 0 Z" />
      </g>
      <g
         transform="translate(355.605,637.2368)"
         id="g2706">
        <path
           inkscape:connector-curvature="0"
           id="path2708"
           style="fill:#000101;fill-opacity:1;fill-rule:nonzero;stroke:none"
           d="m 0,0 c -0.266,-0.19 -0.629,-0.285 -1.094,-0.285 -0.368,0 -0.68,0.095 -0.928,0.285 -0.272,0.183 -0.406,0.486 -0.406,0.911 0,0.365 0.095,0.657 0.288,0.878 0.175,0.217 0.412,0.374 0.707,0.477 0.296,0.115 0.624,0.188 0.985,0.223 0.345,0.016 0.689,0.025 1.033,0.025 h 0.23 V 2.112 C 0.815,1.939 0.805,1.717 0.784,1.445 0.767,1.186 0.698,0.922 0.576,0.649 0.455,0.399 0.265,0.183 0,0 m 0.864,0.235 h 0.023 v -1.06 h 0.78 C 1.609,-0.402 1.586,0.062 1.6,0.566 V 3.49 C 1.616,5.154 0.867,5.976 -0.653,5.96 -1.318,5.943 -1.947,5.792 -2.54,5.506 V 4.713 c 0.593,0.374 1.224,0.558 1.889,0.549 1.002,0 1.491,-0.571 1.466,-1.713 V 3.211 H 0.659 C 0.241,3.211 -0.193,3.199 -0.647,3.173 -1.112,3.128 -1.541,3.031 -1.932,2.887 -2.328,2.748 -2.65,2.518 -2.904,2.198 -3.162,1.876 -3.292,1.439 -3.292,0.887 c -0.017,-0.34 0.107,-0.725 0.374,-1.154 0.153,-0.199 0.373,-0.364 0.66,-0.493 0.273,-0.14 0.633,-0.214 1.08,-0.222 0.418,0.008 0.815,0.117 1.192,0.328 0.383,0.206 0.666,0.503 0.85,0.889" />
      </g>
    </g>
    <path
       inkscape:connector-curvature="0"
       id="path2712"
       style="fill:#000101;fill-opacity:1;fill-rule:nonzero;stroke:none;stroke-width:2.85838"
       d="m 193.64793,209.86297 1.11474,-2.91844 1.13767,2.91844 z m 0.81462,-3.63584 -2.41244,6.1541 h 0.61984 l 0.75435,-1.97807 h 2.6812 l 0.78351,2.04378 0.60282,-0.13693 -2.40393,-6.08263 z" />
    <g
       clip-path="url(#clipPath2720)"
       id="g2716"
       transform="matrix(2.8583827,0,0,-2.8583827,-650.00968,2017.6728)">
      <g
         transform="translate(298.194,631.9924)"
         id="g2722">
        <path
           inkscape:connector-curvature="0"
           id="path2724"
           style="fill:#000101;fill-opacity:1;fill-rule:nonzero;stroke:none"
           d="m 0,0 c -0.132,-0.157 -0.266,-0.263 -0.442,-0.263 -0.23,0 -0.403,0.192 -0.403,0.549 0,0.413 0.206,0.611 0.469,0.611 0.152,0 0.261,-0.027 0.376,-0.086 z m 0,0.999 c -0.102,0.048 -0.233,0.074 -0.381,0.074 -0.36,0 -0.671,-0.26 -0.671,-0.796 0,-0.492 0.27,-0.722 0.592,-0.722 0.214,0 0.361,0.112 0.473,0.245 L 0.05,-0.415 H 0.205 V 1.813 L 0,1.776 Z" />
      </g>
    </g>
    <path
       inkscape:connector-curvature="0"
       id="path2728"
       style="fill:#000101;fill-opacity:1;fill-rule:nonzero;stroke:none;stroke-width:2.85838"
       d="m 206.80793,211.69981 -1.24058,-3.56729 -0.57446,0.10857 1.52059,4.17611 h 0.55422 l 1.54644,-4.23039 h -0.60607 z" />
    <g
       clip-path="url(#clipPath2736)"
       id="g2732"
       transform="matrix(2.8583827,0,0,-2.8583827,-650.00968,2017.6728)">
      <g
         transform="translate(301.9178,631.9407)"
         id="g2738">
        <path
           inkscape:connector-curvature="0"
           id="path2740"
           style="fill:#000101;fill-opacity:1;fill-rule:nonzero;stroke:none"
           d="m 0,0 c -0.143,-0.133 -0.318,-0.22 -0.474,-0.22 -0.155,0 -0.264,0.08 -0.264,0.237 0,0.201 0.161,0.339 0.738,0.398 z m -0.294,1.135 c -0.205,0 -0.372,-0.052 -0.543,-0.126 L -0.81,0.825 c 0.162,0.078 0.332,0.13 0.507,0.13 C -0.117,0.955 0,0.872 0,0.673 V 0.576 c -0.664,-0.064 -0.945,-0.224 -0.945,-0.57 0,-0.26 0.184,-0.4 0.439,-0.4 0.21,0 0.381,0.099 0.517,0.227 L 0.047,-0.363 H 0.2 v 1.046 c 0,0.301 -0.166,0.452 -0.494,0.452" />
      </g>
      <g
         transform="translate(303.6915,633.0759)"
         id="g2742">
        <path
           inkscape:connector-curvature="0"
           id="path2744"
           style="fill:#000101;fill-opacity:1;fill-rule:nonzero;stroke:none"
           d="m 0,0 c -0.197,0 -0.366,-0.105 -0.529,-0.248 l -0.031,0.217 h -0.158 v -1.468 h 0.202 v 1.062 c 0.164,0.157 0.321,0.254 0.475,0.254 0.187,0 0.272,-0.115 0.272,-0.305 V -1.499 H 0.437 V -0.45 C 0.437,-0.167 0.292,0 0,0" />
      </g>
      <g
         transform="translate(305.5762,631.7256)"
         id="g2746">
        <path
           inkscape:connector-curvature="0"
           id="path2748"
           style="fill:#000101;fill-opacity:1;fill-rule:nonzero;stroke:none"
           d="m 0,0 c -0.296,0 -0.478,0.224 -0.478,0.587 0,0.359 0.182,0.587 0.46,0.587 0.168,0 0.307,-0.059 0.446,-0.178 L 0.462,1.202 C 0.343,1.288 0.184,1.35 -0.016,1.35 c -0.37,0 -0.669,-0.272 -0.669,-0.765 0,-0.485 0.288,-0.763 0.665,-0.763 0.195,0 0.352,0.055 0.495,0.168 L 0.447,0.174 C 0.296,0.044 0.155,0 0,0" />
      </g>
      <g
         transform="translate(306.9376,633.6938)"
         id="g2750">
        <path
           inkscape:connector-curvature="0"
           id="path2752"
           style="fill:#000101;fill-opacity:1;fill-rule:nonzero;stroke:none"
           d="m 0,0 c -0.079,0 -0.148,-0.07 -0.148,-0.15 0,-0.08 0.069,-0.149 0.148,-0.149 0.081,0 0.148,0.069 0.148,0.149 C 0.148,-0.07 0.081,0 0,0" />
      </g>
    </g>
    <path
       inkscape:connector-curvature="0"
       id="path2754"
       style="fill:#000101;fill-opacity:1;fill-rule:nonzero;stroke:none;stroke-width:2.85838"
       d="m 227.0479,212.38123 h 0.57123 v -4.19321 h -0.57123 z" />
    <g
       clip-path="url(#clipPath2762)"
       id="g2758"
       transform="matrix(2.8583827,0,0,-2.8583827,-650.00968,2017.6728)">
      <g
         transform="translate(308.6445,633.0759)"
         id="g2764">
        <path
           inkscape:connector-curvature="0"
           id="path2766"
           style="fill:#000101;fill-opacity:1;fill-rule:nonzero;stroke:none"
           d="m 0,0 c -0.199,0 -0.365,-0.105 -0.528,-0.248 l -0.032,0.217 h -0.16 v -1.468 h 0.204 v 1.062 c 0.161,0.157 0.321,0.254 0.477,0.254 0.183,0 0.272,-0.115 0.272,-0.305 V -1.499 H 0.438 V -0.45 C 0.438,-0.167 0.291,0 0,0" />
      </g>
      <g
         transform="translate(310.4169,632.2288)"
         id="g2768">
        <path
           inkscape:connector-curvature="0"
           id="path2770"
           style="fill:#000101;fill-opacity:1;fill-rule:nonzero;stroke:none"
           d="m 0,0 c -0.212,0 -0.345,0.151 -0.345,0.341 0,0.203 0.133,0.355 0.34,0.355 0.212,0 0.354,-0.152 0.354,-0.348 C 0.349,0.148 0.215,0 0,0 m -0.152,-0.506 c 0.054,-0.012 0.104,-0.021 0.176,-0.036 l 0.144,-0.025 c 0.259,-0.051 0.353,-0.112 0.353,-0.227 0,-0.146 -0.191,-0.26 -0.487,-0.26 -0.289,0 -0.483,0.086 -0.483,0.239 0,0.117 0.098,0.216 0.297,0.309 M 0.733,0.84 0.367,0.723 c -0.1,0.08 -0.228,0.124 -0.372,0.124 -0.284,0 -0.542,-0.189 -0.542,-0.499 0,-0.202 0.107,-0.357 0.271,-0.437 -0.094,-0.059 -0.147,-0.117 -0.147,-0.196 0,-0.054 0.035,-0.108 0.109,-0.151 -0.221,-0.116 -0.336,-0.243 -0.336,-0.393 0,-0.253 0.291,-0.38 0.67,-0.38 0.379,0 0.7,0.157 0.7,0.439 0,0.218 -0.18,0.315 -0.505,0.374 l -0.107,0.022 c -0.269,0.049 -0.328,0.07 -0.328,0.129 0,0.034 0.031,0.072 0.095,0.105 0.04,-0.008 0.083,-0.012 0.125,-0.012 0.292,0 0.552,0.189 0.552,0.5 0,0.1 -0.031,0.185 -0.079,0.26 L 0.767,0.64 Z" />
      </g>
      <g
         transform="translate(315.8188,633.0759)"
         id="g2772">
        <path
           inkscape:connector-curvature="0"
           id="path2774"
           style="fill:#000101;fill-opacity:1;fill-rule:nonzero;stroke:none"
           d="M 0,0 C -0.197,0 -0.362,-0.105 -0.511,-0.239 V 0.729 L -0.718,0.693 v -2.192 h 0.207 v 1.062 c 0.159,0.157 0.318,0.254 0.473,0.254 0.186,0 0.273,-0.115 0.273,-0.305 V -1.499 H 0.44 v 1.052 C 0.44,-0.167 0.294,0 0,0" />
      </g>
      <g
         transform="translate(317.2343,632.459)"
         id="g2776">
        <path
           inkscape:connector-curvature="0"
           id="path2778"
           style="fill:#000101;fill-opacity:1;fill-rule:nonzero;stroke:none"
           d="M 0,0 C 0.041,0.281 0.19,0.452 0.419,0.452 0.654,0.452 0.78,0.263 0.8,0 Z m 0.419,0.617 c -0.358,0 -0.632,-0.292 -0.632,-0.763 0,-0.506 0.276,-0.766 0.66,-0.766 0.227,0 0.417,0.083 0.563,0.208 L 0.978,-0.518 C 0.825,-0.648 0.654,-0.736 0.46,-0.736 c -0.294,0 -0.462,0.213 -0.467,0.574 h 1.021 v 0.043 c 0,0.407 -0.194,0.736 -0.595,0.736" />
      </g>
    </g>
    <path
       inkscape:connector-curvature="0"
       id="path2782"
       style="fill:#000101;fill-opacity:1;fill-rule:nonzero;stroke:none;stroke-width:2.85838"
       d="m 269.16641,211.25733 -3.47006,-4.99357 h -0.57447 v 6.11974 h 0.57447 v -5.15076 l 3.57296,5.15076 h 0.47156 v -6.11974 h -0.57446 z" />
    <g
       clip-path="url(#clipPath2790)"
       id="g2786"
       transform="matrix(2.8583827,0,0,-2.8583827,-650.00968,2017.6728)">
      <g
         transform="translate(323.5344,631.9407)"
         id="g2792">
        <path
           inkscape:connector-curvature="0"
           id="path2794"
           style="fill:#000101;fill-opacity:1;fill-rule:nonzero;stroke:none"
           d="m 0,0 c -0.143,-0.133 -0.318,-0.22 -0.475,-0.22 -0.154,0 -0.262,0.08 -0.262,0.237 0,0.201 0.159,0.339 0.737,0.398 z m -0.291,1.135 c -0.209,0 -0.377,-0.052 -0.548,-0.126 l 0.03,-0.184 c 0.159,0.078 0.33,0.13 0.504,0.13 C -0.118,0.955 0,0.872 0,0.673 V 0.576 c -0.665,-0.064 -0.944,-0.224 -0.944,-0.57 0,-0.26 0.182,-0.4 0.439,-0.4 0.212,0 0.382,0.099 0.518,0.227 l 0.032,-0.196 h 0.158 v 1.046 c 0,0.301 -0.168,0.452 -0.494,0.452" />
      </g>
      <g
         transform="translate(325.0775,631.7322)"
         id="g2796">
        <path
           inkscape:connector-curvature="0"
           id="path2798"
           style="fill:#000101;fill-opacity:1;fill-rule:nonzero;stroke:none"
           d="M 0,0 C -0.158,0 -0.217,0.066 -0.217,0.215 V 1.139 H 0.148 L 0.122,1.312 H -0.217 V 1.855 L -0.419,1.821 V 1.312 H -0.644 V 1.139 h 0.225 V 0.18 c 0,-0.269 0.153,-0.36 0.381,-0.36 0.088,0 0.163,0.013 0.206,0.025 L 0.136,0.017 C 0.104,0.01 0.048,0 0,0" />
      </g>
      <g
         transform="translate(313.9569,631.7322)"
         id="g2800">
        <path
           inkscape:connector-curvature="0"
           id="path2802"
           style="fill:#000101;fill-opacity:1;fill-rule:nonzero;stroke:none"
           d="M 0,0 C -0.159,0 -0.217,0.066 -0.217,0.215 V 1.139 H 0.148 L 0.121,1.312 H -0.217 V 1.855 L -0.421,1.821 V 1.312 H -0.645 V 1.139 h 0.224 V 0.18 c 0,-0.269 0.154,-0.36 0.383,-0.36 0.087,0 0.162,0.013 0.205,0.025 L 0.139,0.017 C 0.104,0.01 0.047,0 0,0" />
      </g>
    </g>
    <path
       inkscape:connector-curvature="0"
       id="path2804"
       style="fill:#000101;fill-opacity:1;fill-rule:nonzero;stroke:none;stroke-width:2.85838"
       d="m 281.88312,212.38123 h 0.57447 v -4.19321 h -0.57447 z" />
    <g
       clip-path="url(#clipPath2812)"
       id="g2808"
       transform="matrix(2.8583827,0,0,-2.8583827,-650.00968,2017.6728)">
      <g
         transform="translate(326.1238,633.6938)"
         id="g2814">
        <path
           inkscape:connector-curvature="0"
           id="path2816"
           style="fill:#000101;fill-opacity:1;fill-rule:nonzero;stroke:none"
           d="m 0,0 c -0.079,0 -0.148,-0.07 -0.148,-0.15 0,-0.08 0.069,-0.149 0.148,-0.149 0.081,0 0.146,0.069 0.146,0.149 C 0.146,-0.07 0.081,0 0,0" />
      </g>
      <g
         transform="translate(327.6788,631.7209)"
         id="g2818">
        <path
           inkscape:connector-curvature="0"
           id="path2820"
           style="fill:#000101;fill-opacity:1;fill-rule:nonzero;stroke:none"
           d="m 0,0 c -0.289,0 -0.451,0.25 -0.451,0.59 0,0.347 0.157,0.591 0.451,0.591 0.294,0 0.453,-0.255 0.453,-0.591 C 0.453,0.241 0.296,0 0,0 m 0,1.355 c -0.372,0 -0.659,-0.28 -0.659,-0.765 0,-0.485 0.282,-0.764 0.659,-0.764 0.373,0 0.664,0.279 0.664,0.764 0,0.485 -0.283,0.765 -0.664,0.765" />
      </g>
      <g
         transform="translate(329.8381,633.0759)"
         id="g2822">
        <path
           inkscape:connector-curvature="0"
           id="path2824"
           style="fill:#000101;fill-opacity:1;fill-rule:nonzero;stroke:none"
           d="m 0,0 c -0.197,0 -0.365,-0.105 -0.527,-0.248 l -0.033,0.217 h -0.158 v -1.468 h 0.203 v 1.062 c 0.163,0.157 0.32,0.254 0.476,0.254 0.186,0 0.272,-0.115 0.272,-0.305 V -1.499 H 0.438 V -0.45 C 0.438,-0.167 0.294,0 0,0" />
      </g>
    </g>
    <path
       inkscape:connector-curvature="0"
       id="path2828"
       style="fill:#000101;fill-opacity:1;fill-rule:nonzero;stroke:none;stroke-width:2.85838"
       d="m 296.58122,206.26457 -0.31113,1.89509 0.32572,0.081 0.68871,-1.97515 z" />
    <g
       clip-path="url(#clipPath2836)"
       id="g2832"
       transform="matrix(2.8583827,0,0,-2.8583827,-650.00968,2017.6728)">
      <g
         transform="translate(332.5457,632.4404)"
         id="g2838">
        <path
           inkscape:connector-curvature="0"
           id="path2840"
           style="fill:#000101;fill-opacity:1;fill-rule:nonzero;stroke:none"
           d="m 0,0 c -0.248,0.064 -0.327,0.126 -0.327,0.249 0,0.12 0.094,0.206 0.296,0.206 0.146,0 0.296,-0.043 0.429,-0.115 l 0.035,0.196 c -0.129,0.059 -0.282,0.099 -0.457,0.099 -0.303,0 -0.499,-0.167 -0.499,-0.396 0,-0.243 0.138,-0.348 0.465,-0.431 0.291,-0.079 0.378,-0.144 0.378,-0.29 0,-0.147 -0.127,-0.235 -0.333,-0.235 -0.195,0 -0.375,0.072 -0.51,0.157 l -0.036,-0.197 c 0.129,-0.072 0.332,-0.134 0.528,-0.134 0.339,0 0.547,0.158 0.547,0.425 C 0.516,-0.204 0.348,-0.094 0,0" />
      </g>
    </g>
    <path
       inkscape:connector-curvature="0"
       id="path2842"
       style="fill:#000101;fill-opacity:1;fill-rule:nonzero;stroke:none;stroke-width:2.85838"
       d="m 307.51425,212.38123 h 0.61498 v -6.11691 h -0.61498 z" />
    <g
       clip-path="url(#clipPath2850)"
       id="g2846"
       transform="matrix(2.8583827,0,0,-2.8583827,-650.00968,2017.6728)">
      <g
         transform="translate(336.861,633.0759)"
         id="g2852">
        <path
           inkscape:connector-curvature="0"
           id="path2854"
           style="fill:#000101;fill-opacity:1;fill-rule:nonzero;stroke:none"
           d="m 0,0 c -0.201,0 -0.369,-0.105 -0.528,-0.248 l -0.034,0.217 h -0.159 v -1.468 h 0.205 v 1.062 c 0.16,0.157 0.319,0.254 0.475,0.254 0.184,0 0.273,-0.115 0.273,-0.305 V -1.499 H 0.435 V -0.45 C 0.435,-0.167 0.292,0 0,0" />
      </g>
      <g
         transform="translate(338.6584,633.6096)"
         id="g2856">
        <path
           inkscape:connector-curvature="0"
           id="path2858"
           style="fill:#000101;fill-opacity:1;fill-rule:nonzero;stroke:none"
           d="M 0,0 C 0.056,0 0.097,-0.004 0.125,-0.01 L 0.094,0.18 c -0.026,0.003 -0.055,0.006 -0.105,0.006 -0.253,0 -0.413,-0.123 -0.413,-0.393 v -0.358 h -0.225 v -0.173 h 0.225 v -1.294 h 0.202 v 1.294 h 0.327 l -0.028,0.173 h -0.299 v 0.342 C -0.222,-0.062 -0.14,0 0,0" />
      </g>
      <g
         transform="translate(339.6594,632.7427)"
         id="g2860">
        <path
           inkscape:connector-curvature="0"
           id="path2862"
           style="fill:#000101;fill-opacity:1;fill-rule:nonzero;stroke:none"
           d="m 0,0 -0.046,0.302 h -0.152 v -1.467 h 0.206 v 0.921 c 0.099,0.197 0.307,0.37 0.547,0.384 L 0.521,0.333 C 0.279,0.326 0.11,0.166 0,0" />
      </g>
      <g
         transform="translate(341.71,631.9407)"
         id="g2864">
        <path
           inkscape:connector-curvature="0"
           id="path2866"
           style="fill:#000101;fill-opacity:1;fill-rule:nonzero;stroke:none"
           d="m 0,0 c -0.142,-0.133 -0.314,-0.22 -0.474,-0.22 -0.155,0 -0.263,0.08 -0.263,0.237 0,0.201 0.16,0.339 0.737,0.398 z m -0.29,1.135 c -0.209,0 -0.378,-0.052 -0.547,-0.126 l 0.029,-0.184 c 0.159,0.078 0.329,0.13 0.504,0.13 C -0.118,0.955 0,0.872 0,0.673 V 0.576 c -0.665,-0.064 -0.942,-0.224 -0.942,-0.57 0,-0.26 0.181,-0.4 0.437,-0.4 0.213,0 0.383,0.099 0.518,0.227 l 0.034,-0.196 h 0.157 v 1.046 c 0,0.301 -0.169,0.452 -0.494,0.452" />
      </g>
      <g
         transform="translate(343.2244,632.4404)"
         id="g2868">
        <path
           inkscape:connector-curvature="0"
           id="path2870"
           style="fill:#000101;fill-opacity:1;fill-rule:nonzero;stroke:none"
           d="m 0,0 c -0.247,0.064 -0.328,0.126 -0.328,0.249 0,0.12 0.095,0.206 0.296,0.206 0.148,0 0.296,-0.043 0.43,-0.115 L 0.43,0.536 C 0.3,0.595 0.149,0.635 -0.024,0.635 c -0.304,0 -0.503,-0.167 -0.503,-0.396 0,-0.243 0.142,-0.348 0.467,-0.431 0.293,-0.079 0.38,-0.144 0.38,-0.29 0,-0.147 -0.128,-0.235 -0.334,-0.235 -0.194,0 -0.374,0.072 -0.513,0.157 l -0.031,-0.197 c 0.126,-0.072 0.33,-0.134 0.526,-0.134 0.338,0 0.547,0.158 0.547,0.425 C 0.515,-0.204 0.346,-0.094 0,0" />
      </g>
      <g
         transform="translate(344.9993,631.7322)"
         id="g2872">
        <path
           inkscape:connector-curvature="0"
           id="path2874"
           style="fill:#000101;fill-opacity:1;fill-rule:nonzero;stroke:none"
           d="M 0,0 C -0.156,0 -0.215,0.066 -0.215,0.215 V 1.139 H 0.15 L 0.124,1.312 H -0.215 V 1.855 L -0.418,1.821 V 1.312 H -0.643 V 1.139 h 0.225 V 0.18 c 0,-0.269 0.152,-0.36 0.38,-0.36 0.089,0 0.165,0.013 0.207,0.025 L 0.137,0.017 C 0.105,0.01 0.048,0 0,0" />
      </g>
      <g
         transform="translate(346.1195,632.7427)"
         id="g2876">
        <path
           inkscape:connector-curvature="0"
           id="path2878"
           style="fill:#000101;fill-opacity:1;fill-rule:nonzero;stroke:none"
           d="m 0,0 -0.045,0.302 h -0.153 v -1.467 h 0.205 v 0.921 c 0.098,0.197 0.307,0.37 0.551,0.384 L 0.523,0.333 C 0.28,0.326 0.109,0.166 0,0" />
      </g>
      <g
         transform="translate(348.3159,631.9841)"
         id="g2880">
        <path
           inkscape:connector-curvature="0"
           id="path2882"
           style="fill:#000101;fill-opacity:1;fill-rule:nonzero;stroke:none"
           d="m 0,0 c -0.16,-0.158 -0.319,-0.252 -0.474,-0.252 -0.185,0 -0.274,0.112 -0.274,0.301 v 1.012 h -0.204 v -1.05 c 0,-0.277 0.143,-0.448 0.437,-0.448 0.201,0 0.366,0.104 0.528,0.248 l 0.034,-0.218 h 0.16 V 1.061 H 0 Z" />
      </g>
      <g
         transform="translate(349.9833,631.7256)"
         id="g2884">
        <path
           inkscape:connector-curvature="0"
           id="path2886"
           style="fill:#000101;fill-opacity:1;fill-rule:nonzero;stroke:none"
           d="m 0,0 c -0.3,0 -0.479,0.224 -0.479,0.587 0,0.359 0.179,0.587 0.46,0.587 0.166,0 0.307,-0.059 0.445,-0.178 L 0.461,1.202 C 0.337,1.288 0.181,1.35 -0.017,1.35 c -0.375,0 -0.671,-0.272 -0.671,-0.765 0,-0.485 0.29,-0.763 0.664,-0.763 0.197,0 0.355,0.055 0.496,0.168 L 0.446,0.174 C 0.294,0.044 0.154,0 0,0" />
      </g>
      <g
         transform="translate(351.7103,631.7322)"
         id="g2888">
        <path
           inkscape:connector-curvature="0"
           id="path2890"
           style="fill:#000101;fill-opacity:1;fill-rule:nonzero;stroke:none"
           d="M 0,0 C -0.16,0 -0.219,0.066 -0.219,0.215 V 1.139 H 0.147 L 0.12,1.312 h -0.339 v 0.543 l -0.2,-0.034 V 1.312 H -0.647 V 1.139 h 0.228 V 0.18 c 0,-0.269 0.151,-0.36 0.382,-0.36 0.085,0 0.159,0.013 0.202,0.025 L 0.136,0.017 C 0.102,0.01 0.046,0 0,0" />
      </g>
      <g
         transform="translate(353.5687,631.9841)"
         id="g2892">
        <path
           inkscape:connector-curvature="0"
           id="path2894"
           style="fill:#000101;fill-opacity:1;fill-rule:nonzero;stroke:none"
           d="m 0,0 c -0.161,-0.158 -0.318,-0.252 -0.473,-0.252 -0.186,0 -0.275,0.112 -0.275,0.301 v 1.012 h -0.203 v -1.05 c 0,-0.277 0.141,-0.448 0.438,-0.448 0.199,0 0.367,0.104 0.527,0.248 L 0.048,-0.407 H 0.205 V 1.061 H 0 Z" />
      </g>
      <g
         transform="translate(354.8358,632.7427)"
         id="g2896">
        <path
           inkscape:connector-curvature="0"
           id="path2898"
           style="fill:#000101;fill-opacity:1;fill-rule:nonzero;stroke:none"
           d="M 0,0 -0.044,0.302 H -0.196 V -1.165 H 0.01 v 0.921 c 0.098,0.197 0.307,0.37 0.547,0.384 L 0.524,0.333 C 0.282,0.326 0.11,0.166 0,0" />
      </g>
      <g
         transform="translate(356.1615,632.459)"
         id="g2900">
        <path
           inkscape:connector-curvature="0"
           id="path2902"
           style="fill:#000101;fill-opacity:1;fill-rule:nonzero;stroke:none"
           d="M 0,0 C 0.041,0.281 0.189,0.452 0.419,0.452 0.653,0.452 0.779,0.263 0.8,0 Z m 0.419,0.617 c -0.36,0 -0.633,-0.292 -0.633,-0.763 0,-0.506 0.276,-0.766 0.663,-0.766 0.225,0 0.413,0.083 0.56,0.208 L 0.977,-0.518 C 0.825,-0.648 0.653,-0.736 0.46,-0.736 c -0.294,0 -0.462,0.213 -0.469,0.574 h 1.022 v 0.043 c 0,0.407 -0.194,0.736 -0.594,0.736" />
      </g>
    </g>
    <g
       id="g2906"
       transform="matrix(2.8583827,0,0,-2.8583827,-650.00968,2017.6728)">
      <g
         id="g2912">
        <g
           id="g2914">
          <path
             inkscape:connector-curvature="0"
             id="path2922"
             style="fill:url(#linearGradient2920);stroke:none"
             d="m 287.825,649.894 c 1.055,-5.856 -2.395,-10.617 -6.248,-12.607 v 0 c -5.102,-2.631 -11.617,-1.297 -11.091,2.454 v 0 c -0.055,-0.368 -0.051,-0.782 0.076,-1.221 v 0 c 0.618,-2.154 1.808,-2.901 2.279,-3.096 v 0 c 1.865,-0.694 4.976,-1.029 9.269,1.287 v 0 c 5.557,2.999 7.391,8.596 6.458,13.525 v 0 c -0.244,-0.116 -0.492,-0.23 -0.743,-0.342" />
        </g>
      </g>
    </g>
    <g
       clip-path="url(#clipPath2930)"
       id="g2926"
       transform="matrix(2.8583827,0,0,-2.8583827,-650.00968,2017.6728)">
      <g
         transform="translate(267.7357,648.8677)"
         id="g2932">
        <path
           inkscape:connector-curvature="0"
           id="path2934"
           style="fill:#ed2127;fill-opacity:1;fill-rule:nonzero;stroke:none"
           d="m 0,0 c -2.009,-3.198 -1.475,-5.965 0.115,-7.935 0,0 -3.006,5.199 5.328,10.055 7.632,4.447 16.359,7.482 16.359,7.482 0,0 5.853,1.799 8.741,5.478 C 21.305,13.169 3.983,6.329 0,0" />
      </g>
    </g>
    <g
       id="g2938"
       transform="matrix(2.8583827,0,0,-2.8583827,-650.00968,2017.6728)">
      <g
         id="g2944">
        <g
           id="g2946">
          <path
             inkscape:connector-curvature="0"
             id="path2954"
             style="fill:url(#linearGradient2952);stroke:none"
             d="m 272.944,645.453 c -3.529,-2.827 -3.909,-5.067 -3.434,-6.954 v 0 c 0.484,-1.923 2.885,-2.909 3.353,-3.085 v 0 c -0.462,0.184 -1.677,0.923 -2.301,3.106 v 0 c -0.416,1.451 0.489,2.628 0.526,2.688 v 0 c 0.672,0.947 1.83,1.982 3.695,3.07 v 0 c 8.205,4.778 14.891,4.673 18.876,9.931 v 0 c 0,0 -14.974,-4.153 -20.715,-8.756 m -0.008,-10.065 c -0.011,0.004 -0.036,0.013 -0.073,0.026 v 0 c 0.026,-0.01 0.051,-0.019 0.073,-0.026 m 0.004,-0.002 c -10e-4,10e-4 -0.003,0.002 -0.004,0.002 v 0 c 0.002,-0.001 0.003,-0.001 0.004,-0.002 m 0.002,0 c 0,0 -0.001,0 -0.002,0 v 0 c 10e-4,0 10e-4,0 0.002,0" />
        </g>
      </g>
    </g>
    <g
       id="g2958"
       transform="matrix(2.8583827,0,0,-2.8583827,-650.00968,2017.6728)">
      <g
         id="g2964">
        <g
           id="g2966">
          <path
             inkscape:connector-curvature="0"
             id="path2974"
             style="fill:url(#linearGradient2972);stroke:none"
             d="m 270.521,638.693 c 0.647,-0.417 1.137,-0.665 1.137,-0.665 v 0 c -0.386,0.432 -0.812,0.918 -1.203,1.369 v 0 c -0.007,-0.224 0.011,-0.458 0.066,-0.704" />
        </g>
      </g>
    </g>
    <g
       id="g2978"
       transform="matrix(2.8583827,0,0,-2.8583827,-650.00968,2017.6728)">
      <g
         id="g2984">
        <g
           id="g2986">
          <path
             inkscape:connector-curvature="0"
             id="path2994"
             style="fill:url(#linearGradient2992);stroke:none"
             d="m 298.04,663.658 c -2.956,-3.485 -8.503,-5.188 -8.503,-5.188 v 0 c 0,0 -8.727,-3.035 -16.359,-7.482 v 0 c -4.274,-2.491 -5.565,-5.073 -5.809,-6.996 v 0 -1.451 c 0.129,-0.997 0.481,-1.607 0.481,-1.608 v 0 c 0.697,-0.9 1.42,-1.341 1.42,-1.341 v 0 c 0.026,-0.024 0.056,-0.045 0.083,-0.066 v 0 c -0.019,0.346 0.004,0.706 0.071,1.077 v 0 c -0.131,0.156 -0.223,0.272 -0.261,0.319 v 0 c -0.95,1.257 -0.777,2.555 0.13,3.84 v 0 c 0.27,0.371 0.587,0.737 0.953,1.1 v 0 c 3.957,3.872 13.751,7.483 18.713,9.326 v 0 c 6.703,2.488 8.788,7.252 9.223,8.47 v 0 z" />
        </g>
      </g>
    </g>
    <g
       id="g2998"
       transform="matrix(2.8583827,0,0,-2.8583827,-650.00968,2017.6728)">
      <g
         id="g3004">
        <g
           id="g3006">
          <path
             inkscape:connector-curvature="0"
             id="path3014"
             style="fill:url(#linearGradient3012);stroke:none"
             d="m 272.776,635.449 c -0.337,0.133 -1.135,0.484 -1.872,1.072 v 0 c 0.242,-0.21 0.873,-0.689 1.872,-1.072" />
        </g>
      </g>
    </g>
    <g
       id="g3018"
       transform="matrix(2.8583827,0,0,-2.8583827,-650.00968,2017.6728)">
      <g
         id="g3024">
        <g
           id="g3026">
          <path
             inkscape:connector-curvature="0"
             id="path3034"
             style="fill:url(#linearGradient3032);stroke:none"
             d="m 264.708,649.801 v -1.018 c 0.108,1.314 0.846,6.253 5.902,9.14 v 0 c 3.504,2.003 7.729,1.981 11.065,0.43 v 0 c 0.255,0.116 0.51,0.227 0.768,0.339 v 0 c -0.066,0.032 -0.127,0.065 -0.194,0.096 v 0 c -2.017,0.94 -3.989,1.356 -5.839,1.356 v 0 c -6.342,0 -11.256,-4.885 -11.702,-10.343" />
        </g>
      </g>
    </g>
    <g
       id="g3038"
       transform="matrix(2.8583827,0,0,-2.8583827,-650.00968,2017.6728)">
      <g
         id="g3044">
        <g
           id="g3046">
          <path
             inkscape:connector-curvature="0"
             id="path3054"
             style="fill:url(#linearGradient3052);stroke:none"
             d="m 286.276,654.184 c 0.029,-0.052 0.061,-0.101 0.088,-0.153 v 0 c 0.332,-0.628 0.603,-1.247 0.831,-1.86 v 0 c 0.257,0.089 0.51,0.174 0.758,0.259 v 0 c -0.266,0.703 -0.593,1.38 -0.977,2.019 v 0 c -0.228,-0.087 -0.459,-0.175 -0.7,-0.265" />
        </g>
      </g>
    </g>
    <g
       id="g3058"
       transform="matrix(2.8583827,0,0,-2.8583827,-650.00968,2017.6728)">
      <g
         id="g3064">
        <g
           id="g3066">
          <path
             inkscape:connector-curvature="0"
             id="path3074"
             style="fill:url(#linearGradient3072);stroke:none"
             d="m 270.48,639.653 c -0.012,-0.088 -0.02,-0.174 -0.023,-0.259 v 0 c 0.391,-0.449 0.815,-0.934 1.201,-1.366 v 0 c 2.467,-1.292 6.234,-2.345 10.546,-0.387 v 0 c 0.497,0.298 0.983,0.643 1.447,1.031 v 0 c -5.62,-2.755 -10.463,-0.922 -13.161,1.086 v 0 c -0.005,-0.033 -0.005,-0.07 -0.01,-0.105" />
        </g>
      </g>
    </g>
    <g
       id="g3078"
       transform="matrix(2.8583827,0,0,-2.8583827,-650.00968,2017.6728)">
      <g
         id="g3084">
        <g
           id="g3086">
          <path
             inkscape:connector-curvature="0"
             id="path3094"
             style="fill:url(#linearGradient3092);stroke:none"
             d="m 269.424,640.603 c 0.003,0.016 0.005,0.031 0.007,0.047 v 0 c -0.094,0.093 -0.186,0.183 -0.268,0.272 v 0 c 0.038,-0.047 0.13,-0.163 0.261,-0.319" />
        </g>
      </g>
    </g>
    <g
       id="g3098"
       transform="matrix(2.8583827,0,0,-2.8583827,-650.00968,2017.6728)">
      <g
         id="g3104">
        <g
           id="g3106">
          <path
             inkscape:connector-curvature="0"
             id="path3114"
             style="fill:url(#linearGradient3112);stroke:none"
             d="m 270.455,639.4 c 0,-0.003 0.002,-0.004 0.002,-0.004 v 0 0.013 c 0,-0.005 -0.002,-0.009 -0.002,-0.009" />
        </g>
      </g>
    </g>
  </g>
</svg>
